<?xml version="1.0" encoding="UTF-8"?>
<svg width="512px" height="512px" viewBox="0 0 512 512" version="1.1" xmlns="http://www.w3.org/2000/svg" xmlns:xlink="http://www.w3.org/1999/xlink">
    <title>Artboard Copy</title>
    <defs>
        <linearGradient x1="50%" y1="0%" x2="50%" y2="100%" id="linearGradient-1">
            <stop stop-color="#2F6198" offset="0%"></stop>
            <stop stop-color="#15325F" offset="100%"></stop>
        </linearGradient>
        <linearGradient x1="50%" y1="100%" x2="50%" y2="3.061617e-15%" id="linearGradient-2">
            <stop stop-color="#2F6198" offset="0%"></stop>
            <stop stop-color="#15325F" offset="100%"></stop>
        </linearGradient>
        <polygon id="path-3" points="0 0 188.757225 0 188.757225 118.626475 0 118.626475"></polygon>
        <polygon id="path-5" points="0 0 188.757225 0 188.757225 118.626475 0 118.626475"></polygon>
    </defs>
    <g id="Artboard-Copy" stroke="none" stroke-width="1" fill="none" fill-rule="evenodd">
        <polygon id="bg" fill="url(#linearGradient-1)" fill-rule="nonzero" points="0 0 512 0 512 512 0 512"></polygon>
        <polygon id="Rectangle" fill="url(#linearGradient-2)" fill-rule="nonzero" transform="translate(502.000000, 457.000000) scale(-1, -1) translate(-502.000000, -457.000000) " points="0 0 1004 0 651.643185 914 0 914"></polygon>
        <g id="Group-3" transform="translate(24.970106, 86.000000)">
            <g id="Group" transform="translate(29.028562, 0.000000)">
                <path d="M59.9414292,129.360686 C74.3043942,129.360686 81.485769,135.448352 81.485769,147.623866 C81.485769,149.663419 81.2771813,151.857451 80.8599997,154.206027 L77.7311537,172.747327 C76.300817,181.338173 73.2018005,187.703955 68.4340113,191.844866 C63.666222,195.985777 56.961619,198.056202 48.3200011,198.056202 C39.6783832,198.056202 33.6591396,195.985777 30.2620898,191.844866 C27.9377925,189.001853 26.7756613,185.077317 26.7756613,180.071141 C26.7756613,177.846174 27.0140472,175.404927 27.4908261,172.747327 L30.6196722,154.206027 C33.4207483,137.642383 43.1945696,129.360686 59.9414292,129.360686 Z M50.7336823,183.686694 C53.7135506,183.686694 56.0974094,182.883246 57.8853304,181.276325 C59.6732513,179.669405 60.9247772,176.702826 61.6399456,172.376501 L64.679396,154.576853 C64.8581881,153.340761 64.9475828,152.228294 64.9475828,151.23942 C64.9475828,146.233244 62.5041275,143.730193 57.6171436,143.730193 C51.478615,143.853802 47.813432,147.46932 46.6214847,154.576853 L43.5820343,172.376501 C43.3436448,173.921617 43.2244519,175.528514 43.2244519,177.197239 C43.2244519,181.523564 45.7275036,183.686694 50.7336823,183.686694 Z M146.755893,144.471845 L124.311228,144.471845 L115.461064,196.758311 L99.2804599,196.758311 L108.130624,144.471845 L86.049911,144.471845 L88.5529878,130.009631 L148.986521,130.009631 L146.755893,144.471845 Z M207.007125,144.471845 L185.015807,144.471845 L176.165643,196.758311 L159.985039,196.758311 L168.835204,144.471845 L146.75449,144.471845 L148.987501,130.009631 L209.510202,130.009631 L207.007125,144.471845 Z M231.148904,198.056202 L231.148904,182.20339 L216.219838,182.20339 L210.01411,199.129569 L192.93955,199.129569 L217.739564,130.009631 L247.240112,130.009631 L247.597694,196.758311 L231.148904,198.056202 Z M226.947311,146.233269 L219.885058,169.780719 L231.595882,169.780719 L232.579233,146.233269 L226.947311,146.233269 Z M311.341724,130.009631 L309.821999,180.534673 L311.878098,180.534673 L327.432932,130.009631 L344.95447,130.009631 L322.873756,196.758311 L296.055076,196.758311 L298.468758,154.020614 L286.489747,196.758311 L259.671067,196.758311 L260.296836,130.009631 L277.818374,130.009631 L276.209253,180.534673 L278.265352,180.534673 L293.909582,130.009631 L311.341724,130.009631 Z M371.062952,196.758311 L371.599325,182.20339 L356.67026,182.20339 L352.289876,196.758311 L335.215316,196.758311 L358.189985,130.009631 L387.690533,130.009631 L388.048116,196.758311 L371.062952,196.758311 Z M367.397732,146.233269 L360.33548,169.780719 L372.046303,169.780719 L373.029655,146.233269 L367.397732,146.233269 Z" id="OTTAWA-FPV-RIDERS" fill="#FFFFFF"></path>
                <path d="M157.883266,95.0129277 C139.653727,104.359524 136.12222,127.213951 136.12222,127.213951 L179.003224,127.213951 C176.151491,123.145565 167.560368,110.701255 157.883266,95.0129277" id="Fill-1" fill="#000000" opacity="0.102229527"></path>
                <g id="Group-5" transform="translate(191.933414, 8.586939)">
                    <mask id="mask-4" fill="white">
                        <use xlink:href="#path-3"></use>
                    </mask>
                    <g id="Clip-4"></g>
                    <path d="M108.096827,73.3490924 C108.096827,73.3490924 96.4635495,87.611669 71.5983631,95.3084221 C71.5983631,95.3084221 59.4115054,77.3127059 48.8853871,58.521051 C35.2862257,65.4433049 21.0470719,70.8004809 7.86917126,75.1178448 C13.2699502,83.3023449 24.3469479,99.2237969 29.3966762,107.30646 C29.3966762,107.30646 -1.19063546,113.794565 -8.5762007,118.626475 L35.9478211,118.626475 C33.7443033,114.36003 30.3040071,108.852778 29.3966762,107.30646 C29.3966762,107.30646 54.9450611,102.552267 71.5983631,95.3084221 C71.5983631,95.3084221 80.5933605,110.141823 88.1301475,118.626475 L113.052042,118.626475 C118.053163,116.163622 124.933756,111.093198 129.53792,107.30646 L136.567034,118.626475 L180.181024,118.626475 C174.115949,106.842832 165.639427,92.2318648 156.601223,77.3341453 C152.086172,84.5967501 143.47463,96.3026754 129.53792,107.30646 C129.53792,107.30646 112.20412,79.9149159 108.096827,73.3490924 C108.096827,73.3490924 126.224542,54.9835461 133.442683,40.2466222 C118.879483,17.4618746 107.184096,-0.000535985593 107.184096,-0.000535985593 C102.08306,14.1682432 93.3797047,25.9358069 82.6348549,35.7845421 L108.096827,73.3490924 Z" id="Fill-3" fill="#000000" opacity="0.103895642" mask="url(#mask-4)"></path>
                </g>
                <path d="M175.035667,86.4259883 C156.806128,95.7725849 153.274622,118.627011 153.274622,118.627011 L196.155625,118.627011 C193.303892,114.558625 184.712769,102.114315 175.035667,86.4259883" id="Fill-1" fill="#FFFFFF"></path>
                <g id="Group-5" transform="translate(200.509615, 0.000000)">
                    <mask id="mask-6" fill="white">
                        <use xlink:href="#path-5"></use>
                    </mask>
                    <g id="Clip-4"></g>
                    <path d="M116.673028,73.3490924 C116.673028,73.3490924 105.03975,87.611669 80.1745638,95.3084221 C80.1745638,95.3084221 67.9877061,77.3127059 57.4615878,58.521051 C43.8624264,65.4433049 29.6232726,70.8004809 16.445372,75.1178448 C21.8461509,83.3023449 32.9231486,99.2237969 37.9728769,107.30646 C37.9728769,107.30646 7.38556524,113.794565 0,118.626475 L44.5240218,118.626475 C42.320504,114.36003 38.8802078,108.852778 37.9728769,107.30646 C37.9728769,107.30646 63.5212618,102.552267 80.1745638,95.3084221 C80.1745638,95.3084221 89.1695612,110.141823 96.7063482,118.626475 L121.628243,118.626475 C126.629364,116.163622 133.509957,111.093198 138.114121,107.30646 L145.143234,118.626475 L188.757225,118.626475 C182.69215,106.842832 174.215628,92.2318648 165.177424,77.3341453 C160.662373,84.5967501 152.050831,96.3026754 138.114121,107.30646 C138.114121,107.30646 120.78032,79.9149159 116.673028,73.3490924 C116.673028,73.3490924 134.800743,54.9835461 142.018884,40.2466222 C127.455683,17.4618746 115.760296,-0.000535985593 115.760296,-0.000535985593 C110.659261,14.1682432 101.955905,25.9358069 91.2110556,35.7845421 L116.673028,73.3490924 Z" id="Fill-3" fill="#FFFFFF" mask="url(#mask-6)"></path>
                </g>
                <path d="M12.0638496,211.430235 C-31.8896206,220.019081 67.8951006,271.377077 63.5122,243.299459 C58.7895338,213.045244 139.029892,200.262807 425.149593,210.254327 C184.532255,187.380357 106.249372,193.02566 12.0638496,211.430235 Z" id="Path-4" fill="#000000" fill-rule="nonzero" opacity="0.101045881" transform="translate(213.001849, 223.434577) rotate(-2.000000) translate(-213.001849, -223.434577) "></path>
                <path d="M12.0638496,206.063398 C-31.8896206,214.652244 67.8951006,266.01024 63.5122,237.932622 C58.7895338,207.678406 139.029892,194.89597 425.149593,204.88749 C184.532255,182.01352 106.249372,187.658823 12.0638496,206.063398 Z" id="Path-4" fill="#FFFFFF" fill-rule="nonzero" transform="translate(213.001849, 218.067740) rotate(-2.000000) translate(-213.001849, -218.067740) "></path>
                <g id="FPV-RIDERS" transform="translate(172.176392, 213.163534)" fill="#FFFFFF" fill-rule="nonzero">
                    <polygon id="Path" points="20.8490035 11.7949874 19.8596835 16.4909699 8.00616392 16.4909699 5.60614682 27.8273652 0 27.8273652 5.71607127 0.82546568 24.8612459 0.82546568 23.8536051 5.57647926 10.3145773 5.57647926 8.99548395 11.7949874"></polygon>
                    <path d="M46.589645,2.87995804 C47.8965245,4.27407785 48.2446186,6.43251774 47.6339272,9.3552777 C46.9499529,12.5470783 45.6613941,14.8033512 43.7682508,16.1240963 C41.8751076,17.4448414 39.4323421,18.1052139 36.4399543,18.1052139 L30.7055623,18.1052139 L28.6536393,27.8273652 L23.0474925,27.8273652 L28.7818845,0.788778316 L40.5438004,0.788778316 C43.2552701,0.788778316 45.2705516,1.48583822 46.589645,2.87995804 Z M38.6384433,5.48476085 L33.3803905,5.48476085 L31.6948823,13.4459187 L36.9529351,13.4459187 C38.2842423,13.4459187 39.3895937,13.121847 40.2689892,12.4737036 C41.1483848,11.8255602 41.7346485,10.798314 42.0277804,9.39196506 C42.3331261,7.98561613 42.1773998,6.98282819 41.5606015,6.38360125 C40.9438032,5.78437432 39.9697505,5.48476085 38.6384433,5.48476085 Z" id="Shape"></path>
                    <polygon id="Path" points="59.2126357 21.3153582 69.4905715 0.788778316 75.3532087 0.788778316 60.4034839 27.8273652 55.0721482 27.8273652 51.682811 0.788778316 57.7103349 0.788778316"></polygon>
                    <path d="M99.7747568,26.3782144 C99.7869706,25.6200089 99.8724674,24.8434597 100.031247,24.0485668 L100.525907,21.5354824 C100.867894,19.8111763 100.797665,18.6616389 100.315219,18.0868702 C99.8327725,17.5121015 98.7610091,17.2247172 97.0999286,17.2247172 L91.2739329,17.2247172 L89.0388024,27.8273652 L83.5242593,27.8273652 L89.2586513,0.788778316 L102.504547,0.788778316 C104.385477,0.82546568 105.790067,1.05781898 106.718318,1.48583822 C107.646569,1.91385746 108.379398,2.54365721 108.916807,3.37523745 C109.356504,4.06006823 109.658797,4.81827374 109.823683,5.64985398 C109.98857,6.48143422 109.961089,7.42919112 109.74124,8.49312466 C109.460322,9.77718238 108.864898,11.0398391 107.954968,12.2810949 C107.045038,13.5223507 105.790067,14.3997902 104.190055,14.9134133 C105.325941,15.4148072 106.055718,16.1271536 106.379384,17.0504522 C106.70305,17.9737509 106.663356,19.3831571 106.260299,21.2786708 L105.875564,23.0946953 C105.619073,24.3298366 105.490828,25.1675314 105.490828,25.6077797 C105.490828,26.3048397 105.722891,26.8184627 106.187016,27.148649 L106.058771,27.8273652 L99.8480398,27.8273652 C99.7991845,27.2281383 99.7747568,26.745088 99.7747568,26.3782144 Z M100.324379,5.48476085 L93.7655537,5.48476085 L92.2266114,12.7488588 L98.6205501,12.7488588 C99.8907882,12.7488588 100.874001,12.6021094 101.570189,12.3086105 C102.803786,11.7949874 103.585471,10.7799703 103.915244,9.26355929 C104.257231,7.62485705 103.945779,6.52423615 102.980887,5.96169657 C102.431264,5.64373942 101.545762,5.48476085 100.324379,5.48476085 Z" id="Shape"></path>
                    <polygon id="Path" points="110.052693 27.8273652 115.787085 0.788778316 121.393231 0.788778316 115.658839 27.8273652"></polygon>
                    <path d="M146.199515,4.80604462 C146.859062,6.15124795 147.191889,7.60651337 147.198182,9.17184088 C147.204102,10.7371684 147.06059,12.2291212 146.767458,13.6476992 C145.997987,17.2430609 144.630038,20.288112 142.663612,22.7828528 C140.000998,26.1458611 136.629981,27.8273652 132.550563,27.8273652 L120.916892,27.8273652 L126.651284,0.788778316 L138.284955,0.788778316 C139.946035,0.813236558 141.295663,1.0089025 142.333839,1.37577613 C144.09263,1.99946131 145.381189,3.14288414 146.199515,4.80604462 Z M140.941462,14.0329166 C141.527726,11.2813643 141.546047,9.1687836 140.996425,7.6951745 C140.446802,6.2215654 138.889539,5.48476085 136.324636,5.48476085 L131.121545,5.48476085 L127.384114,23.1313827 L132.587204,23.1313827 C135.249819,23.1313827 137.387239,21.8167522 138.999464,19.1874911 C139.878859,17.7444548 140.526192,16.0262633 140.941462,14.0329166 Z" id="Shape"></path>
                    <polygon id="Path" points="169.668385 22.9662896 168.642423 27.8273652 148.178155 27.8273652 153.912547 0.788778316 173.717268 0.788778316 172.691307 5.57647926 158.401129 5.57647926 157.19196 11.3180517 170.309611 11.3180517 169.30197 16.0140342 156.184319 16.0140342 154.71866 22.9662896"></polygon>
                    <path d="M189.418144,26.3782144 C189.430358,25.6200089 189.515854,24.8434597 189.674634,24.0485668 L190.169294,21.5354824 C190.511281,19.8111763 190.441052,18.6616389 189.958606,18.0868702 C189.476159,17.5121015 188.404396,17.2247172 186.743315,17.2247172 L180.91732,17.2247172 L178.682189,27.8273652 L173.167646,27.8273652 L178.902038,0.788778316 L192.147934,0.788778316 C194.028864,0.82546568 195.433454,1.05781898 196.361705,1.48583822 C197.289956,1.91385746 198.022785,2.54365721 198.560194,3.37523745 C198.999891,4.06006823 199.302184,4.81827374 199.46707,5.64985398 C199.631957,6.48143422 199.604476,7.42919112 199.384627,8.49312466 C199.103709,9.77718238 198.508285,11.0398391 197.598355,12.2810949 C196.688425,13.5223507 195.433454,14.3997902 193.833442,14.9134133 C194.969328,15.4148072 195.699104,16.1271536 196.022771,17.0504522 C196.346437,17.9737509 196.306742,19.3831571 195.903686,21.2786708 L195.518951,23.0946953 C195.26246,24.3298366 195.134215,25.1675314 195.134215,25.6077797 C195.134215,26.3048397 195.366278,26.8184627 195.830403,27.148649 L195.702158,27.8273652 L189.491427,27.8273652 C189.442571,27.2281383 189.418144,26.745088 189.418144,26.3782144 Z M189.967766,5.48476085 L183.408941,5.48476085 L181.869998,12.7488588 L188.263937,12.7488588 C189.534175,12.7488588 190.517388,12.6021094 191.213576,12.3086105 C192.447173,11.7949874 193.228858,10.7799703 193.558631,9.26355929 C193.900618,7.62485705 193.589166,6.52423615 192.624273,5.96169657 C192.074651,5.64373942 191.189149,5.48476085 189.967766,5.48476085 Z" id="Shape"></path>
                    <path d="M212.79541,11.3180517 L217.210708,12.4370162 C219.140493,12.9261811 220.538976,13.5804391 221.406158,14.3997902 C222.749679,15.6716188 223.164949,17.5121015 222.651968,19.9212384 C222.126774,22.3915209 220.746611,24.442956 218.511481,26.0755436 C216.27635,27.7081313 213.436635,28.5244251 209.992336,28.5244251 C206.474754,28.5244251 203.879315,27.7203604 202.206021,26.112231 C200.532727,24.5041016 199.995318,22.2936879 200.593796,19.48099 L205.980094,19.48099 C205.894597,20.7161313 206.035056,21.6394299 206.401471,22.250886 C207.085445,23.363736 208.538891,23.920161 210.761807,23.920161 C212.093114,23.920161 213.204573,23.7734116 214.096182,23.4799127 C215.793904,22.9173731 216.801545,21.8717832 217.119104,20.3431431 C217.314526,19.4504172 217.070249,18.7594719 216.386275,18.270307 C215.714514,17.7933713 214.578628,17.3714666 212.978617,17.004593 L210.248826,16.3625641 C207.573998,15.7266498 205.778566,15.0357045 204.862529,14.2897281 C203.311372,13.0423577 202.816712,11.0918129 203.378549,8.43809361 C203.891529,6.01672762 205.198409,4.00503719 207.299187,2.40302231 C209.399965,0.801007437 212.154184,0 215.561841,0 C218.407663,0 220.673328,0.755148233 222.358836,2.2654447 C224.044345,3.77574116 224.630608,5.96781113 224.117628,8.84165461 L218.694688,8.84165461 C218.951179,7.2151815 218.49316,6.05952954 217.320633,5.37469876 C216.538948,4.92222127 215.494665,4.69598253 214.187786,4.69598253 C212.73434,4.69598253 211.509904,4.98948144 210.514477,5.57647926 C209.51905,6.16347707 208.911412,6.98282819 208.691563,8.03453261 C208.483928,9.00063319 208.75874,9.72215134 209.515997,10.1990871 C209.992336,10.5170442 211.085474,10.8900324 212.79541,11.3180517 Z" id="Path"></path>
                </g>
            </g>
            <g id="Group-2" opacity="0.0973539807" transform="translate(0.000000, 204.023897)" fill-rule="nonzero" stroke="#000000">
                <line x1="75.1793429" y1="21.3451811" x2="105.251048" y2="93.4990273" id="Path-5" stroke-width="5"></line>
                <line x1="125.656848" y1="44.4990273" x2="19.3318901" y2="44.4990273" id="Path-6" stroke-width="5"></line>
                <ellipse id="Oval" stroke-width="3" fill="#000000" transform="translate(30.115668, 43.767912) rotate(31.000000) translate(-30.115668, -43.767912) " cx="30.1156676" cy="43.7679116" rx="29.2800519" ry="13.7389311"></ellipse>
                <ellipse id="Oval" stroke-width="3" fill="#000000" transform="translate(103.742185, 87.141269) rotate(31.000000) translate(-103.742185, -87.141269) " cx="103.742185" cy="87.1412687" rx="29.2800519" ry="13.7389311"></ellipse>
                <ellipse id="Oval" stroke-width="3" fill="#000000" transform="translate(126.181172, 45.537544) rotate(31.000000) translate(-126.181172, -45.537544) " cx="126.181172" cy="45.5375438" rx="22.5976356" ry="10.7948893"></ellipse>
                <ellipse id="Oval" stroke-width="3" fill="#000000" transform="translate(74.131832, 16.353747) rotate(31.000000) translate(-74.131832, -16.353747) " cx="74.1318316" cy="16.3537471" rx="19.8199059" ry="9.57111758"></ellipse>
                <path d="M93.9181259,33.8451811 C94.8447065,33.8451811 95.7239133,34.1291945 96.4557884,34.6289641 C97.1876636,35.1287336 97.7722071,35.8442593 98.1094613,36.7072838 L103.137478,49.5738431 C103.584138,50.7168346 103.531668,51.933377 103.0838,52.9808606 C102.635932,54.0283443 101.792666,54.9067692 100.657733,55.3735258 L63.8754853,70.5007235 C62.6016779,71.0245941 61.1776758,71.051468 59.8850093,70.5760323 C58.4595802,70.0517672 57.3815968,68.999365 56.7910369,67.7216717 C56.2004771,66.4439784 56.0973407,64.9409942 56.6216058,63.5155651 L66.4504482,36.7918368 C66.7760002,35.9066907 67.3602926,35.1700268 68.098976,34.6546494 C68.8376595,34.139272 69.7307339,33.8451811 70.6738499,33.8451811 Z" id="Path-7" stroke-width="3" fill="#000000"></path>
            </g>
            <g id="Group-2" transform="translate(0.000000, 189.023897)" fill-rule="nonzero" stroke="#FFFFFF">
                <line x1="75.1793429" y1="21.3451811" x2="105.251048" y2="93.4990273" id="Path-5" stroke-width="5"></line>
                <line x1="125.656848" y1="44.4990273" x2="19.3318901" y2="44.4990273" id="Path-6" stroke-width="5"></line>
                <ellipse id="Oval" stroke-width="3" fill="#1E4374" transform="translate(30.115668, 43.767912) rotate(31.000000) translate(-30.115668, -43.767912) " cx="30.1156676" cy="43.7679116" rx="29.2800519" ry="13.7389311"></ellipse>
                <ellipse id="Oval" stroke-width="3" fill="#1E4374" transform="translate(103.742185, 87.141269) rotate(31.000000) translate(-103.742185, -87.141269) " cx="103.742185" cy="87.1412687" rx="29.2800519" ry="13.7389311"></ellipse>
                <ellipse id="Oval" stroke-width="3" fill="#1E4374" transform="translate(126.181172, 45.537544) rotate(31.000000) translate(-126.181172, -45.537544) " cx="126.181172" cy="45.5375438" rx="22.5976356" ry="10.7948893"></ellipse>
                <ellipse id="Oval" stroke-width="3" fill="#1F4374" transform="translate(74.131832, 16.353747) rotate(31.000000) translate(-74.131832, -16.353747) " cx="74.1318316" cy="16.3537471" rx="19.8199059" ry="9.57111758"></ellipse>
                <path d="M93.9181259,33.8451811 C94.8447065,33.8451811 95.7239133,34.1291945 96.4557884,34.6289641 C97.1876636,35.1287336 97.7722071,35.8442593 98.1094613,36.7072838 L103.137478,49.5738431 C103.584138,50.7168346 103.531668,51.933377 103.0838,52.9808606 C102.635932,54.0283443 101.792666,54.9067692 100.657733,55.3735258 L63.8754853,70.5007235 C62.6016779,71.0245941 61.1776758,71.051468 59.8850093,70.5760323 C58.4595802,70.0517672 57.3815968,68.999365 56.7910369,67.7216717 C56.2004771,66.4439784 56.0973407,64.9409942 56.6216058,63.5155651 L66.4504482,36.7918368 C66.7760002,35.9066907 67.3602926,35.1700268 68.098976,34.6546494 C68.8376595,34.139272 69.7307339,33.8451811 70.6738499,33.8451811 Z" id="Path-7" stroke-width="3" fill="#1F4374"></path>
            </g>
        </g>
    </g>
</svg>